<?xml version="1.0" standalone="no"?>
<!DOCTYPE svg PUBLIC "-//W3C//DTD SVG 20010904//EN"
 "http://www.w3.org/TR/2001/REC-SVG-20010904/DTD/svg10.dtd">
<svg version="1.0" xmlns="http://www.w3.org/2000/svg"
 width="856.000000pt" height="1026.000000pt" viewBox="0 0 856.000000 1026.000000"
 preserveAspectRatio="xMidYMid meet">

<g transform="translate(0.000000,1026.000000) scale(0.100000,-0.100000)"
fill="#000000" stroke="none">
<path d="M0 5130 l0 -5130 4280 0 4280 0 0 5130 0 5130 -4280 0 -4280 0 0
-5130z m2750 1470 c0 -6 29 -10 68 -10 38 0 72 -3 76 -7 4 -5 40 -13 79 -20
91 -14 127 -22 152 -33 11 -4 48 -16 82 -27 35 -10 63 -21 63 -25 0 -5 7 -8
14 -8 8 0 36 -11 62 -25 26 -14 53 -25 60 -25 8 0 14 -4 14 -8 0 -5 16 -17 35
-28 19 -10 35 -22 35 -26 0 -5 5 -8 10 -8 12 0 34 -19 113 -95 64 -62 102
-108 129 -157 12 -21 25 -38 30 -38 4 0 8 -9 8 -20 0 -11 4 -20 9 -20 5 0 12
-18 16 -40 4 -22 11 -40 16 -40 5 0 9 -11 9 -24 0 -14 4 -27 9 -30 9 -6 15
-33 31 -146 12 -85 11 -227 -1 -315 -5 -38 -12 -89 -15 -112 -4 -24 -10 -43
-15 -43 -5 0 -9 -11 -9 -24 0 -14 -4 -27 -9 -30 -5 -4 -12 -24 -16 -46 -4 -22
-10 -40 -14 -40 -4 0 -13 -16 -21 -35 -8 -19 -17 -35 -21 -35 -4 0 -10 -11
-13 -25 -4 -14 -11 -25 -16 -25 -6 0 -10 -4 -10 -10 0 -14 -33 -52 -116 -134
-79 -79 -108 -103 -141 -119 -13 -5 -23 -14 -23 -19 0 -4 -7 -8 -15 -8 -8 0
-15 -4 -15 -10 0 -5 -6 -10 -14 -10 -8 0 -21 -6 -28 -13 -7 -7 -40 -25 -73
-40 -33 -16 -68 -33 -78 -38 -23 -13 -20 -16 -41 51 -9 30 -20 62 -23 70 -20
46 -30 127 -20 155 14 39 60 85 86 85 12 0 21 5 21 10 0 6 11 10 25 10 14 0
25 4 25 9 0 5 15 12 33 15 18 3 39 15 47 26 8 11 21 20 29 20 7 0 24 11 37 25
13 14 26 25 29 25 9 0 35 27 35 36 0 3 8 14 18 23 25 23 52 67 52 86 0 8 5 15
10 15 6 0 10 10 10 21 0 22 -41 65 -71 74 -17 6 -35 69 -45 161 -4 30 -11 54
-15 54 -5 0 -9 7 -9 16 0 32 -135 194 -162 194 -11 0 -10 144 1 156 5 5 12 33
16 62 l7 52 -51 0 c-44 0 -127 -23 -141 -39 -3 -3 -15 -12 -27 -19 -22 -12
-23 -11 -23 23 0 19 5 35 10 35 6 0 10 16 10 35 l0 35 -54 0 c-30 0 -57 -4
-60 -9 -3 -4 -20 -11 -38 -15 -41 -8 -178 -75 -178 -87 0 -5 -5 -9 -11 -9 -36
0 -249 -196 -249 -230 0 -5 -4 -10 -8 -10 -5 0 -17 -18 -28 -40 -10 -22 -22
-40 -26 -40 -5 0 -8 -6 -8 -14 0 -8 -3 -16 -7 -18 -12 -5 -43 -64 -43 -82 0
-9 -3 -16 -8 -16 -7 0 -21 -27 -42 -85 -6 -16 -17 -43 -25 -60 -29 -66 -45
-117 -45 -140 0 -14 -4 -25 -10 -25 -5 0 -10 -15 -10 -33 0 -18 -4 -37 -9 -42
-8 -9 -20 -71 -38 -200 -3 -22 -9 -44 -14 -49 -5 -6 -9 -20 -9 -32 0 -12 -7
-38 -15 -57 -8 -20 -15 -47 -15 -61 0 -13 -3 -26 -7 -28 -12 -5 -63 -106 -63
-123 0 -8 -4 -15 -10 -15 -5 0 -10 -7 -10 -15 0 -8 -3 -15 -8 -15 -4 0 -16
-16 -26 -35 -11 -19 -22 -35 -26 -35 -27 0 -30 -70 -30 -740 l0 -690 -245 0
-245 0 0 1735 0 1734 33 5 c77 13 251 29 355 33 61 3 112 9 112 14 0 5 163 9
395 9 257 0 395 -4 395 -10z m575 -1132 c29 -25 34 -78 9 -99 -22 -18 -92 -18
-104 1 -16 25 -11 82 8 101 23 24 57 23 87 -3z m1332 -610 c59 -27 83 -65 83
-135 0 -64 -39 -122 -82 -123 -10 0 -18 -4 -18 -10 0 -5 -18 -10 -40 -10 -22
0 -40 5 -40 10 0 6 -6 10 -12 10 -17 1 -52 31 -67 57 -6 12 -11 46 -11 76 0
48 4 58 32 86 17 17 38 31 45 31 7 0 13 5 13 10 0 14 64 12 97 -2z m2103 2 c0
-5 7 -10 15 -10 23 0 60 -43 74 -88 12 -36 12 -46 -3 -83 -17 -42 -35 -60 -85
-86 -56 -30 -138 5 -171 74 -24 51 -24 60 -6 104 15 36 41 64 79 85 27 15 97
18 97 4z m-2880 -290 l0 -180 165 0 165 0 0 -85 0 -85 -162 -2 -163 -3 1 -405
c0 -388 4 -447 28 -478 33 -42 57 -62 75 -62 11 0 23 -4 26 -10 3 -5 33 -10
65 -10 32 0 62 5 65 10 3 6 15 10 25 10 16 0 19 -10 22 -67 2 -38 8 -76 12
-85 6 -14 4 -18 -11 -18 -10 0 -24 -5 -29 -10 -17 -17 -231 -17 -286 0 -27 8
-48 18 -48 22 0 4 -6 8 -13 8 -20 0 -94 78 -108 114 -7 17 -18 34 -23 38 -8 5
-12 154 -14 455 -1 246 -5 458 -7 471 -5 21 -10 22 -105 22 l-100 0 0 85 0 85
105 0 105 0 0 154 0 153 68 17 c37 10 74 21 82 26 8 5 25 9 38 9 l22 1 0 -180z
m-979 -171 c38 -7 69 -16 69 -20 0 -5 11 -9 25 -9 14 0 25 -4 25 -10 0 -5 11
-12 25 -16 14 -3 25 -10 25 -15 0 -5 6 -9 13 -9 7 0 31 -21 53 -47 21 -26 47
-55 57 -65 9 -10 17 -24 17 -32 0 -8 4 -16 8 -18 12 -4 62 -139 62 -165 0 -12
5 -25 10 -28 6 -4 10 -60 10 -136 l0 -129 -454 0 c-389 0 -455 -2 -459 -15 -7
-16 11 -121 24 -147 5 -10 9 -25 9 -33 0 -8 4 -15 9 -15 5 0 12 -12 16 -27 7
-30 81 -123 97 -123 6 0 18 -8 27 -18 20 -22 82 -52 109 -52 12 0 24 -4 27
-10 4 -6 68 -10 160 -10 92 0 156 4 160 10 3 6 20 10 36 10 16 0 46 7 66 15
19 8 41 15 48 15 16 0 35 -44 35 -80 0 -16 5 -32 10 -35 21 -13 8 -33 -33 -49
-23 -9 -50 -16 -60 -16 -9 0 -17 -4 -17 -9 0 -29 -458 -48 -476 -19 -3 4 -21
8 -40 8 -19 0 -34 4 -34 8 0 5 -19 15 -41 22 -57 19 -199 122 -199 145 0 3
-11 18 -25 33 -14 15 -25 32 -25 39 0 6 -3 13 -7 15 -12 5 -43 76 -43 98 0 11
-4 20 -9 20 -10 0 -18 42 -30 156 -11 107 8 326 30 340 5 3 9 15 9 27 0 12 7
31 15 41 8 11 15 28 15 38 0 10 5 18 10 18 6 0 10 7 10 15 0 8 5 15 10 15 6 0
10 5 10 11 0 14 47 77 86 114 52 50 87 76 134 98 25 11 47 24 50 27 8 10 127
27 203 29 38 0 99 -4 138 -10z m2929 -19 c0 -5 14 -10 30 -10 17 0 38 -4 48
-9 91 -44 117 -61 149 -93 49 -48 63 -65 63 -78 0 -5 3 -10 8 -10 4 0 15 -21
25 -48 10 -26 23 -55 28 -64 5 -10 9 -31 9 -48 0 -16 5 -30 10 -30 7 0 10
-160 10 -460 l0 -460 -110 0 -110 0 0 420 c0 273 -3 420 -10 420 -5 0 -10 16
-10 35 0 19 -4 43 -10 53 -5 9 -17 35 -27 57 -16 38 -64 95 -78 95 -4 0 -21
10 -38 23 -56 39 -256 28 -303 -18 -6 -5 -26 -21 -46 -34 -19 -14 -43 -40 -53
-58 -10 -18 -22 -33 -27 -33 -4 0 -8 -8 -8 -18 0 -10 -6 -24 -12 -30 -10 -10
-14 -119 -16 -462 l-3 -450 -109 0 -110 0 0 544 c0 353 -4 547 -10 551 -5 3
-10 46 -10 96 l0 89 100 0 100 0 0 -84 c0 -84 5 -116 20 -116 4 0 22 22 40 48
18 27 49 59 68 73 20 13 40 29 46 34 27 25 130 65 167 65 16 0 29 5 29 10 0 6
32 10 75 10 43 0 75 -4 75 -10z m-1120 -670 l0 -640 -110 0 -110 0 0 640 0
640 110 0 110 0 0 -640z m2120 0 l0 -640 -110 0 -110 0 0 640 0 640 110 0 110
0 0 -640z"/>
<path d="M2675 4247 c-62 -21 -85 -32 -85 -39 0 -5 -7 -8 -15 -8 -20 0 -105
-89 -105 -110 0 -6 -4 -10 -10 -10 -5 0 -12 -16 -16 -35 -3 -19 -10 -35 -15
-35 -5 0 -9 -8 -9 -18 0 -10 -4 -22 -10 -28 -5 -5 -10 -29 -12 -54 l-3 -45
345 0 345 0 -3 70 c-2 39 -8 72 -13 73 -5 2 -9 12 -9 22 0 47 -85 170 -117
170 -7 0 -13 5 -13 10 0 6 -9 10 -20 10 -11 0 -20 4 -20 8 0 26 -157 40 -215
19z"/>
</g>
</svg>
